<?xml version="1.0" encoding="utf-8"?>
<!-- Generator: Adobe Illustrator 19.1.0, SVG Export Plug-In . SVG Version: 6.00 Build 0)  -->
<svg version="1.1" id="Calque_1" xmlns="http://www.w3.org/2000/svg" xmlns:xlink="http://www.w3.org/1999/xlink" x="0px" y="0px"
	 viewBox="0 0 32 32" style="enable-background:new 0 0 32 32;" xml:space="preserve">
<style type="text/css">
	.st0{fill:#FFFFFF;}
</style>
<g>
	<g>
		<path class="st0" d="M16,12.7c-1.8,0-3.3,1.5-3.3,3.3c0,1.8,1.5,3.3,3.3,3.3c1.8,0,3.3-1.5,3.3-3.3C19.3,14.2,17.8,12.7,16,12.7z"
			/>
		<path class="st0" d="M21.4,7.4H10.6c-1.7,0-3.1,1.4-3.1,3.1v10.8c0,1.7,1.4,3.1,3.1,3.1h10.8c1.7,0,3.1-1.4,3.1-3.1V10.6
			C24.6,8.8,23.2,7.4,21.4,7.4z M16,21.6c-3.1,0-5.6-2.5-5.6-5.6c0-3.1,2.5-5.6,5.6-5.6c3.1,0,5.6,2.5,5.6,5.6
			C21.6,19.1,19.1,21.6,16,21.6z M21.8,11.5c-0.7,0-1.3-0.6-1.3-1.3c0-0.7,0.6-1.3,1.3-1.3c0.7,0,1.3,0.6,1.3,1.3
			C23.1,10.9,22.6,11.5,21.8,11.5z"/>
		<path class="st0" d="M16,0C7.2,0,0,7.2,0,16c0,8.8,7.2,16,16,16c8.8,0,16-7.2,16-16C32,7.2,24.8,0,16,0z M26.9,21.4
			c0,3-2.5,5.5-5.5,5.5H10.6c-3,0-5.5-2.5-5.5-5.5V10.6c0-3,2.5-5.5,5.5-5.5h10.8c3,0,5.5,2.5,5.5,5.5V21.4z"/>
	</g>
</g>
</svg>
