<?xml version="1.0" encoding="utf-8"?>
<!-- Generator: Adobe Illustrator 26.3.1, SVG Export Plug-In . SVG Version: 6.00 Build 0)  -->
<svg version="1.1" id="Calque_1" xmlns:svgjs="http://svgjs.com/svgjs"
	 xmlns="http://www.w3.org/2000/svg" xmlns:xlink="http://www.w3.org/1999/xlink" x="0px" y="0px" viewBox="0 0 32 32"
	 style="enable-background:new 0 0 32 32;" xml:space="preserve">
<style type="text/css">
	.st0{fill:#FFFFFF;}
</style>
<g>
	<path class="st0" d="M16,0C7.2,0,0,7.2,0,16s7.2,16,16,16s16-7.2,16-16S24.8,0,16,0z M24,12.3v2.1c-1,0-2.1-0.2-2.9-0.6
		c-0.6-0.3-1.1-0.6-1.6-1v6.7c0,1.4-0.6,2.9-1.6,4c-0.8,0.8-1.9,1.4-3.2,1.6c-0.3,0-0.6,0-0.8,0c-1.3,0-2.6-0.5-3.5-1.1
		c-0.2-0.2-0.3-0.3-0.5-0.5c-1.4-1.1-2.1-2.7-1.9-4.3c0-1.3,0.6-2.4,1.4-3.4c1.1-1.3,2.7-1.9,4.3-1.9c0.3,0,0.6,0,0.8,0v0.8V17
		c-0.3-0.2-0.5-0.2-0.8-0.2c-1.4,0-2.7,1.3-2.7,2.7c0,1,0.5,1.8,1.3,2.2c0.3,0.2,0.8,0.3,1.3,0.3c0.3,0,0.6,0,1-0.2
		c1.1-0.3,1.9-1.4,1.9-2.6v-4.5v-8h3c0,0.3,0,0.6,0.2,0.8c0.2,1.1,0.8,2.1,1.8,2.7c0.8,0.6,1.8,1,2.7,1l0,0L24,12.3L24,12.3z"/>
</g>
</svg>
